<svg xmlns="http://www.w3.org/2000/svg" xmlns:xlink="http://www.w3.org/1999/xlink" width="144" zoomAndPan="magnify" viewBox="0 0 108 107.999999" height="144" preserveAspectRatio="xMidYMid meet" version="1.0"><defs><clipPath id="d4e2b30094"><path d="M 0 2.0625 L 108 2.0625 L 108 106.3125 L 0 106.3125 Z M 0 2.0625 " clip-rule="nonzero"/></clipPath></defs><g clip-path="url(#d4e2b30094)"><path fill="#000000" d="M 87.171875 64.445312 C 84.714844 64.445312 82.351562 64.875 80.160156 65.664062 L 73.699219 52.832031 L 76.183594 53.210938 C 76.523438 53.265625 76.855469 53.289062 77.175781 53.289062 C 80.457031 53.289062 82.789062 50.707031 83.222656 47.925781 C 83.660156 45.132812 82.21875 41.820312 78.03125 41.144531 L 66.863281 39.339844 L 66.136719 32.820312 C 66.128906 32.761719 66.121094 32.699219 66.109375 32.644531 C 65.683594 28.359375 65.195312 24.984375 62.730469 23.113281 C 62.71875 23.105469 62.707031 23.097656 62.695312 23.089844 C 62.695312 23.089844 61.753906 22.410156 56.972656 18.957031 C 56.9375 18.933594 56.902344 18.910156 56.871094 18.886719 C 56.367188 18.578125 55.320312 18.085938 54.816406 17.949219 C 53.230469 17.527344 51.582031 17.703125 50.15625 18.375 C 49.855469 17.863281 49.449219 17.417969 48.945312 17.070312 L 37.453125 9.191406 C 35.582031 7.910156 33.023438 8.394531 31.742188 10.273438 L 18.269531 30.0625 C 16.992188 31.941406 17.476562 34.511719 19.347656 35.792969 L 30.835938 43.671875 C 31.011719 43.789062 31.195312 43.867188 31.386719 43.917969 L 30.449219 45.277344 C 29.335938 46.464844 28.753906 48.035156 28.808594 49.726562 C 28.867188 51.597656 29.699219 53.375 31.097656 54.613281 L 33.355469 56.601562 L 28.640625 65.96875 C 26.226562 64.988281 23.59375 64.441406 20.835938 64.441406 C 9.347656 64.445312 0 73.820312 0 85.351562 C 0 96.878906 9.347656 106.257812 20.835938 106.257812 C 31.734375 106.257812 40.703125 97.808594 41.589844 87.097656 L 48.351562 87.097656 L 49.402344 91.855469 C 49.863281 93.953125 51.375 95.886719 53.25 96.785156 C 54 97.144531 54.773438 97.324219 55.535156 97.324219 C 56.199219 97.324219 56.851562 97.1875 57.46875 96.910156 C 60.921875 96.058594 63.105469 92.585938 62.363281 89.070312 L 60.222656 78.996094 L 71.597656 56.402344 L 76.988281 67.117188 C 70.640625 70.703125 66.339844 77.53125 66.339844 85.351562 C 66.339844 96.878906 75.6875 106.257812 87.171875 106.257812 C 98.660156 106.257812 108.007812 96.878906 108.007812 85.351562 C 108.007812 73.820312 98.660156 64.445312 87.171875 64.445312 Z M 55.835938 46.679688 C 56.835938 48.832031 58.808594 50.449219 61.164062 50.910156 C 61.207031 50.917969 61.253906 50.925781 61.300781 50.933594 L 66.449219 51.722656 L 52.480469 51.722656 Z M 53.910156 21.328125 C 54.101562 21.390625 54.703125 21.664062 54.996094 21.835938 C 59.347656 24.980469 60.488281 25.804688 60.644531 25.914062 C 62.066406 27.015625 62.363281 30.09375 62.742188 33.988281 C 62.898438 35.636719 63.082031 37.507812 63.375 39.480469 L 63.546875 41.046875 C 63.632812 41.828125 64.226562 42.453125 65 42.578125 L 77.476562 44.597656 C 79.886719 44.984375 79.894531 46.675781 79.78125 47.382812 C 79.605469 48.5 78.644531 50.054688 76.707031 49.757812 L 61.898438 47.492188 C 61.890625 47.488281 61.882812 47.488281 61.871094 47.484375 C 60.199219 47.183594 58.835938 45.695312 58.628906 43.949219 L 57.253906 32.464844 C 57.136719 31.503906 56.269531 30.824219 55.316406 30.9375 C 54.363281 31.054688 53.679688 31.925781 53.796875 32.882812 L 54.871094 41.878906 C 54.804688 41.953125 54.738281 42.027344 54.683594 42.113281 L 48.5625 51.316406 L 34.472656 45.585938 L 50.296875 22.664062 C 51.097656 21.507812 52.542969 20.972656 53.910156 21.328125 Z M 32.800781 40.789062 L 21.3125 32.914062 C 21.03125 32.71875 20.957031 32.320312 21.148438 32.035156 L 34.617188 12.246094 C 34.808594 11.964844 35.210938 11.886719 35.492188 12.082031 L 46.980469 19.960938 C 47.164062 20.085938 47.222656 20.265625 47.238281 20.363281 C 47.257812 20.460938 47.269531 20.648438 47.144531 20.832031 C 47.003906 21.039062 46.914062 21.261719 46.871094 21.496094 L 33.246094 41.230469 C 33.128906 41.0625 32.980469 40.910156 32.800781 40.789062 Z M 20.835938 102.765625 C 11.269531 102.765625 3.484375 94.953125 3.484375 85.351562 C 3.484375 75.75 11.269531 67.9375 20.835938 67.9375 C 23.03125 67.9375 25.128906 68.351562 27.0625 69.101562 L 19.28125 84.5625 C 19.007812 85.105469 19.035156 85.75 19.351562 86.265625 C 19.667969 86.78125 20.226562 87.097656 20.835938 87.097656 L 38.097656 87.097656 C 37.222656 95.882812 29.816406 102.765625 20.835938 102.765625 Z M 30.167969 70.683594 C 34.523438 73.484375 37.558594 78.179688 38.097656 83.605469 L 23.664062 83.605469 Z M 47.578125 83.605469 L 41.59375 83.605469 C 41.03125 76.820312 37.230469 70.945312 31.75 67.546875 L 36.058594 58.988281 L 43.625 65.664062 Z M 56.535156 93.542969 C 56.496094 93.550781 56.457031 93.5625 56.417969 93.570312 C 56.316406 93.601562 56.214844 93.640625 56.117188 93.691406 C 55.964844 93.765625 55.507812 93.996094 54.746094 93.632812 C 53.832031 93.195312 53.03125 92.152344 52.800781 91.097656 L 46.894531 64.351562 C 46.855469 64.171875 46.789062 63.996094 46.695312 63.839844 C 46.601562 63.683594 46.480469 63.539062 46.34375 63.417969 L 42.140625 59.707031 L 36.660156 54.875 C 36.660156 54.875 36.660156 54.875 36.660156 54.871094 L 33.394531 51.992188 C 32.726562 51.402344 32.3125 50.515625 32.285156 49.617188 C 32.273438 49.234375 32.332031 48.867188 32.453125 48.53125 L 45.175781 53.707031 L 46.472656 54.804688 L 50.949219 58.589844 C 51.019531 58.652344 51.097656 58.707031 51.179688 58.753906 C 51.304688 58.824219 51.4375 58.9375 51.574219 59.078125 C 51.636719 59.144531 51.707031 59.21875 51.769531 59.296875 C 51.820312 59.359375 51.871094 59.421875 51.921875 59.484375 C 51.976562 59.550781 52.027344 59.625 52.078125 59.695312 C 52.109375 59.742188 52.148438 59.796875 52.179688 59.847656 C 52.226562 59.917969 52.273438 59.988281 52.316406 60.0625 C 52.355469 60.125 52.394531 60.1875 52.429688 60.253906 C 52.457031 60.300781 52.480469 60.34375 52.503906 60.390625 C 52.558594 60.492188 52.609375 60.597656 52.660156 60.699219 C 52.671875 60.722656 52.683594 60.75 52.695312 60.773438 C 52.820312 61.050781 52.914062 61.324219 52.964844 61.5625 L 58.953125 89.792969 C 59.316406 91.503906 58.230469 93.179688 56.535156 93.542969 Z M 59.070312 73.546875 L 56.375 60.84375 C 56.222656 60.117188 55.882812 59.265625 55.417969 58.457031 C 54.816406 57.414062 54.003906 56.429688 53.101562 55.839844 L 52.363281 55.21875 L 68.296875 55.21875 Z M 87.171875 102.765625 C 77.605469 102.765625 69.824219 94.953125 69.824219 85.351562 C 69.824219 78.890625 73.347656 73.246094 78.5625 70.242188 L 85.617188 84.257812 C 85.925781 84.867188 86.539062 85.21875 87.171875 85.21875 C 87.4375 85.21875 87.707031 85.160156 87.957031 85.03125 C 88.816406 84.59375 89.160156 83.542969 88.726562 82.683594 L 81.742188 68.8125 C 83.453125 68.246094 85.277344 67.9375 87.171875 67.9375 C 96.738281 67.9375 104.523438 75.75 104.523438 85.351562 C 104.523438 94.953125 96.738281 102.765625 87.171875 102.765625 Z M 67.265625 19.976562 C 72.167969 19.976562 76.15625 15.972656 76.15625 11.050781 C 76.15625 6.128906 72.167969 2.128906 67.265625 2.128906 C 62.363281 2.128906 58.371094 6.132812 58.371094 11.054688 C 58.371094 15.976562 62.359375 19.976562 67.265625 19.976562 Z M 67.265625 5.625 C 70.246094 5.625 72.671875 8.0625 72.671875 11.054688 C 72.671875 14.046875 70.246094 16.484375 67.265625 16.484375 C 64.28125 16.484375 61.855469 14.046875 61.855469 11.054688 C 61.855469 8.0625 64.28125 5.625 67.265625 5.625 Z M 67.265625 5.625 " fill-opacity="1" fill-rule="nonzero"/></g></svg>