<svg xmlns="http://www.w3.org/2000/svg" xmlns:xlink="http://www.w3.org/1999/xlink" width="144" zoomAndPan="magnify" viewBox="0 0 108 107.999999" height="144" preserveAspectRatio="xMidYMid meet" version="1.0"><defs><clipPath id="94e27b93fd"><path d="M 3 7.628906 L 42 7.628906 L 42 38 L 3 38 Z M 3 7.628906 " clip-rule="nonzero"/></clipPath><clipPath id="211f86b94e"><path d="M 11 7.628906 L 34 7.628906 L 34 19 L 11 19 Z M 11 7.628906 " clip-rule="nonzero"/></clipPath></defs><path fill="#000000" d="M 85.9375 19.535156 C 85.9375 19.535156 85.941406 19.535156 85.949219 19.535156 C 86.066406 19.519531 86.660156 19.5 87.265625 19.945312 C 88.238281 20.667969 89.039062 22.324219 89.039062 25.859375 C 89.039062 30.320312 87.347656 33.371094 85.019531 34.851562 C 84.378906 35.257812 84.1875 36.105469 84.59375 36.746094 C 85 37.390625 85.847656 37.582031 86.484375 37.175781 C 89.4375 35.300781 91.78125 31.519531 91.78125 25.859375 C 91.78125 20.921875 90.253906 18.738281 88.894531 17.734375 C 87.402344 16.628906 85.90625 16.769531 85.621094 16.804688 L 85.527344 16.820312 C 84.777344 16.945312 84.273438 17.65625 84.398438 18.402344 C 84.523438 19.152344 85.234375 19.65625 85.980469 19.53125 Z M 85.9375 19.535156 " fill-opacity="1" fill-rule="evenodd"/><path fill="#000000" d="M 48.464844 62.042969 C 45.652344 59.113281 40.496094 55.480469 32.09375 55.429688 C 31.3125 55.425781 30.671875 56.058594 30.667969 56.84375 C 30.664062 57.628906 31.296875 58.269531 32.078125 58.273438 C 39.429688 58.316406 43.960938 61.449219 46.421875 64.015625 C 46.964844 64.578125 47.863281 64.59375 48.425781 64.050781 C 48.992188 63.507812 49.007812 62.605469 48.464844 62.042969 Z M 48.464844 62.042969 " fill-opacity="1" fill-rule="evenodd"/><g clip-path="url(#94e27b93fd)"><path fill="#000000" d="M 41.191406 12.515625 C 41.191406 9.855469 39.039062 7.699219 36.386719 7.695312 C 29.785156 7.695312 15.28125 7.695312 8.679688 7.695312 C 6.027344 7.699219 3.875 9.855469 3.875 12.515625 C 3.875 19.742188 3.875 35.980469 3.875 35.980469 C 3.875 36.761719 4.507812 37.398438 5.292969 37.398438 L 39.773438 37.398438 C 40.558594 37.398438 41.191406 36.761719 41.191406 35.980469 Z M 38.355469 34.558594 L 38.355469 12.515625 C 38.355469 11.425781 37.476562 10.539062 36.386719 10.539062 C 29.785156 10.539062 15.28125 10.539062 8.679688 10.539062 C 7.589844 10.539062 6.707031 11.425781 6.707031 12.515625 L 6.707031 34.558594 Z M 38.355469 34.558594 " fill-opacity="1" fill-rule="evenodd"/></g><g clip-path="url(#211f86b94e)"><path fill="#000000" d="M 33.378906 9.753906 C 33.597656 9.3125 33.574219 8.789062 33.316406 8.371094 C 33.058594 7.953125 32.601562 7.695312 32.113281 7.695312 L 12.953125 7.695312 C 12.464844 7.695312 12.007812 7.953125 11.75 8.371094 C 11.492188 8.789062 11.46875 9.3125 11.6875 9.753906 L 15.519531 17.4375 C 15.757812 17.917969 16.25 18.222656 16.785156 18.222656 L 28.28125 18.222656 C 28.816406 18.222656 29.308594 17.917969 29.546875 17.4375 Z M 15.246094 10.539062 L 17.660156 15.382812 L 27.40625 15.382812 L 29.820312 10.539062 Z M 15.246094 10.539062 " fill-opacity="1" fill-rule="evenodd"/></g><path fill="#000000" d="M 24.449219 73.011719 C 17.324219 73.011719 11.539062 78.8125 11.539062 85.960938 C 11.539062 93.105469 17.324219 98.90625 24.449219 98.90625 C 31.574219 98.90625 37.359375 93.105469 37.359375 85.960938 C 37.359375 78.8125 31.574219 73.011719 24.449219 73.011719 Z M 24.449219 75.855469 C 30.011719 75.855469 34.527344 80.382812 34.527344 85.960938 C 34.527344 91.535156 30.011719 96.066406 24.449219 96.066406 C 18.886719 96.066406 14.371094 91.535156 14.371094 85.960938 C 14.371094 80.382812 18.886719 75.855469 24.449219 75.855469 Z M 24.449219 75.855469 " fill-opacity="1" fill-rule="evenodd"/><path fill="#000000" d="M 24.449219 80.695312 C 21.550781 80.695312 19.199219 83.054688 19.199219 85.960938 C 19.199219 88.863281 21.550781 91.222656 24.449219 91.222656 C 27.347656 91.222656 29.695312 88.863281 29.695312 85.960938 C 29.695312 83.054688 27.347656 80.695312 24.449219 80.695312 Z M 24.449219 83.539062 C 25.78125 83.539062 26.863281 84.625 26.863281 85.960938 C 26.863281 87.296875 25.78125 88.378906 24.449219 88.378906 C 23.117188 88.378906 22.035156 87.296875 22.035156 85.960938 C 22.035156 84.625 23.117188 83.539062 24.449219 83.539062 Z M 24.449219 83.539062 " fill-opacity="1" fill-rule="evenodd"/><path fill="#000000" d="M 64.753906 76.890625 C 65.859375 76.550781 69.046875 74.222656 71.886719 70.992188 C 74.75 67.738281 77.296875 63.53125 76.6875 59.265625 C 75.386719 50.214844 65.480469 37.644531 65.480469 37.644531 C 65.386719 37.527344 65.316406 37.398438 65.265625 37.257812 L 65.238281 37.179688 C 65.160156 36.9375 64.839844 35.683594 65.660156 34.59375 C 66.261719 33.804688 67.742188 32.8125 71.507812 33.367188 C 73.441406 33.648438 75.78125 35.042969 78.207031 37.238281 C 83.375 41.910156 89.171875 50.222656 92.707031 57.035156 C 94.316406 60.140625 95.007812 62.257812 95.132812 63.730469 C 95.246094 65.058594 94.945312 65.992188 94.445312 66.699219 C 93.960938 67.390625 93.253906 67.878906 92.390625 68.242188 C 91.480469 68.628906 90.359375 68.871094 89.289062 69.304688 C 85.75 70.730469 83.382812 72.308594 81.832031 73.878906 C 80.582031 75.140625 79.070312 77.652344 78.113281 79.480469 C 76.90625 81.785156 75.554688 83.648438 73.542969 85 C 71.554688 86.335938 68.90625 87.191406 65.019531 87.378906 L 47.4375 87.378906 C 47.050781 87.378906 46.683594 87.222656 46.414062 86.941406 C 46.148438 86.664062 46.003906 86.289062 46.023438 85.898438 C 46.023438 85.898438 46.023438 85.886719 46.023438 85.890625 C 46.039062 85.496094 46.34375 76.574219 40.199219 71.03125 C 37.570312 68.660156 33.746094 66.941406 28.230469 66.742188 C 20.96875 66.480469 15.058594 68.179688 10.730469 70.148438 C 10.519531 70.246094 10.285156 70.289062 10.054688 70.273438 C 9.601562 70.246094 9.195312 70.003906 8.953125 69.621094 C 8.707031 69.242188 8.660156 68.765625 8.824219 68.34375 C 12.933594 57.664062 24.03125 50.75 34.355469 47.949219 C 41.355469 46.046875 47.984375 46.066406 51.867188 47.886719 C 56.132812 49.886719 57.386719 53.742188 57.269531 57.699219 C 57.144531 61.957031 55.371094 66.292969 54.621094 67.941406 C 56.078125 70.378906 59.75 73.96875 62.570312 75.835938 C 63.171875 76.234375 63.730469 76.550781 64.214844 76.742188 C 64.40625 76.816406 64.6875 76.875 64.753906 76.890625 Z M 64.914062 84.539062 C 68.117188 84.382812 70.320312 83.746094 71.960938 82.640625 C 73.582031 81.550781 74.632812 80.015625 75.601562 78.160156 C 76.679688 76.105469 78.414062 73.296875 79.820312 71.875 C 81.574219 70.101562 84.230469 68.28125 88.234375 66.667969 C 89.136719 66.300781 90.078125 66.070312 90.898438 65.777344 C 91.402344 65.597656 91.867188 65.4375 92.132812 65.058594 C 92.386719 64.699219 92.378906 64.175781 92.226562 63.398438 C 91.988281 62.1875 91.34375 60.566406 90.191406 58.347656 C 87.28125 52.734375 82.78125 46.054688 78.425781 41.433594 C 75.742188 38.585938 73.1875 36.484375 71.097656 36.179688 C 69.6875 35.972656 68.773438 35.992188 68.1875 36.183594 C 68.113281 36.207031 68.050781 36.234375 67.992188 36.265625 C 69.671875 38.492188 78.25 50.214844 79.492188 58.863281 C 80.21875 63.921875 77.414062 69.007812 74.011719 72.871094 C 70.628906 76.71875 66.691406 79.3125 65.445312 79.648438 C 64.960938 79.777344 64.328125 79.765625 63.597656 79.535156 C 62.867188 79.304688 61.976562 78.84375 61.007812 78.207031 C 57.570312 75.929688 53.070312 71.320312 51.757812 68.605469 C 51.566406 68.203125 51.570312 67.734375 51.773438 67.335938 C 51.773438 67.335938 54.296875 62.421875 54.4375 57.613281 C 54.523438 54.757812 53.746094 51.90625 50.667969 50.464844 C 47.214844 48.84375 41.320312 49 35.09375 50.691406 C 26.648438 52.984375 17.5625 58.167969 12.980469 66.191406 C 17.152344 64.726562 22.308594 63.6875 28.332031 63.902344 C 34.6875 64.128906 39.0625 66.1875 42.09375 68.921875 C 47.675781 73.953125 48.667969 81.402344 48.828125 84.539062 Z M 67.929688 36.300781 C 67.296875 36.699219 67.808594 37.496094 67.808594 37.496094 C 68.03125 37.128906 68.066406 36.691406 67.929688 36.300781 Z M 67.929688 36.300781 " fill-opacity="1" fill-rule="evenodd"/><path fill="#000000" d="M 12.953125 87.378906 C 13.738281 87.378906 14.371094 86.746094 14.371094 85.960938 C 14.371094 80.382812 18.886719 75.855469 24.449219 75.855469 C 30.011719 75.855469 34.527344 80.382812 34.527344 85.960938 C 34.527344 86.746094 35.160156 87.378906 35.941406 87.378906 L 47.4375 87.378906 C 48.191406 87.378906 48.816406 86.785156 48.851562 86.027344 C 48.851562 86.027344 49.324219 75.585938 42.242188 69.050781 C 39.203125 66.25 34.789062 64.132812 28.332031 63.902344 C 15.3125 63.433594 6.34375 68.84375 2.511719 71.609375 L 2.421875 71.679688 C 0.914062 72.96875 0.0429688 74.859375 0.0429688 76.847656 C 0.0429688 78.347656 0.0429688 80.308594 0.0429688 82.03125 C 0.0429688 84.984375 2.433594 87.378906 5.378906 87.378906 C 8.710938 87.378906 12.953125 87.378906 12.953125 87.378906 Z M 46.003906 84.539062 C 45.867188 81.796875 45.019531 75.476562 40.324219 71.144531 C 37.6875 68.714844 33.832031 66.945312 28.230469 66.742188 C 16.152344 66.308594 7.8125 71.292969 4.21875 73.878906 C 3.367188 74.628906 2.878906 75.707031 2.878906 76.847656 C 2.878906 78.347656 2.878906 80.308594 2.878906 82.03125 C 2.878906 83.414062 3.996094 84.539062 5.378906 84.539062 L 11.617188 84.539062 C 12.320312 78.0625 17.800781 73.011719 24.449219 73.011719 C 31.097656 73.011719 36.578125 78.0625 37.28125 84.539062 Z M 46.003906 84.539062 " fill-opacity="1" fill-rule="evenodd"/><path fill="#000000" d="M 13.378906 64.9375 C 13.679688 64.84375 13.9375 64.652344 14.117188 64.390625 C 19.410156 56.761719 28.824219 51.996094 37.191406 50.175781 C 42.621094 49 47.609375 49.027344 50.667969 50.464844 C 51.171875 50.699219 51.617188 50.972656 52.007812 51.277344 C 52.417969 51.597656 52.96875 51.667969 53.445312 51.457031 C 53.808594 51.300781 54.085938 51 54.214844 50.628906 C 54.214844 50.628906 55.917969 45.683594 52.886719 42.042969 C 51.023438 39.796875 47.246094 37.898438 39.671875 38.4375 C 28.992188 39.199219 17.515625 45.316406 12.195312 51.640625 C 9.84375 54.4375 8.683594 57.320312 9.011719 59.839844 C 9.246094 61.65625 10.207031 63.339844 12.125 64.730469 C 12.488281 64.996094 12.953125 65.070312 13.378906 64.9375 Z M 51.882812 47.894531 C 51.964844 46.722656 51.796875 45.167969 50.710938 43.859375 C 49.191406 42.03125 46.035156 40.832031 39.875 41.273438 C 29.964844 41.980469 19.296875 47.605469 14.363281 53.46875 C 11.949219 56.339844 10.921875 59.257812 12.75 61.472656 C 18.574219 54.003906 28.070312 49.253906 36.59375 47.398438 C 42.746094 46.0625 48.398438 46.261719 51.867188 47.886719 Z M 51.882812 47.894531 " fill-opacity="1" fill-rule="evenodd"/><path fill="#000000" d="M 9.019531 58.066406 C 9 58.820312 9.570312 59.453125 10.316406 59.515625 C 11.066406 59.574219 11.730469 59.042969 11.835938 58.300781 C 12.082031 56.585938 13.179688 54.765625 14.808594 52.957031 C 17.472656 50 21.566406 47.148438 26.222656 44.988281 C 26.421875 44.894531 26.601562 44.753906 26.738281 44.582031 C 27.078125 44.15625 27.144531 43.574219 26.90625 43.082031 C 26.671875 42.589844 26.175781 42.277344 25.628906 42.277344 C 25.628906 42.277344 6.488281 42.277344 5.292969 42.277344 C 4.675781 42.277344 3.886719 42.269531 3.160156 42.449219 C 2.148438 42.699219 1.242188 43.257812 0.71875 44.394531 C -0.0351562 46.03125 0.0898438 48.667969 4.796875 50.429688 C 8.816406 51.929688 9.058594 56.269531 9.019531 58.066406 Z M 20.011719 45.117188 L 5.292969 45.117188 C 4.9375 45.117188 4.5 45.101562 4.070312 45.164062 C 3.773438 45.207031 3.441406 45.257812 3.292969 45.582031 C 3.171875 45.84375 3.246094 46.152344 3.542969 46.472656 C 3.972656 46.929688 4.699219 47.359375 5.785156 47.765625 C 8.710938 48.859375 10.253906 51.003906 11.050781 53.144531 C 11.527344 52.445312 12.082031 51.746094 12.707031 51.054688 C 14.578125 48.976562 17.097656 46.933594 20.011719 45.117188 Z M 20.011719 45.117188 " fill-opacity="1" fill-rule="evenodd"/><path fill="#000000" d="M 25.628906 45.117188 C 25.628906 45.117188 14.582031 45.125 8.742188 45.121094 C 6.050781 45.105469 3.875 42.914062 3.875 40.210938 C 3.875 38.179688 3.875 36.011719 3.875 36.011719 C 3.875 35.226562 4.507812 34.589844 5.292969 34.589844 L 39.773438 34.589844 C 40.558594 34.589844 41.191406 35.226562 41.191406 36.011719 L 41.191406 38.828125 C 41.441406 39.082031 41.53125 39.371094 41.566406 39.609375 C 41.621094 40.003906 41.574219 40.492188 41.058594 40.914062 C 41.03125 40.9375 40.738281 41.210938 39.875 41.273438 C 35.269531 41.601562 30.507812 43 26.226562 44.988281 C 26.035156 45.074219 25.832031 45.117188 25.628906 45.117188 Z M 38.355469 38.558594 L 38.355469 37.433594 L 6.707031 37.433594 L 6.707031 40.210938 C 6.707031 41.351562 7.625 42.273438 8.75 42.28125 C 14.007812 42.28125 23.496094 42.277344 25.320312 42.277344 C 29.429688 40.402344 33.9375 39.046875 38.355469 38.558594 Z M 38.355469 38.558594 " fill-opacity="1" fill-rule="evenodd"/><path fill="#000000" d="M 83.8125 19.835938 C 76.457031 21.085938 73.964844 23.960938 73.964844 23.960938 C 73.484375 24.546875 72.621094 24.632812 72.035156 24.148438 C 71.453125 23.667969 71.367188 22.800781 71.847656 22.214844 C 71.847656 22.214844 75.171875 17.976562 85.597656 16.808594 C 86.078125 16.753906 86.546875 16.953125 86.839844 17.339844 C 87.132812 17.71875 87.203125 18.226562 87.027344 18.675781 C 87.027344 18.675781 83.746094 27.085938 87.027344 35.511719 C 87.304688 36.21875 86.957031 37.015625 86.25 37.292969 C 86.25 37.292969 79.632812 39.851562 74.144531 37.523438 C 73.445312 37.226562 73.121094 36.417969 73.414062 35.71875 C 73.710938 35.019531 74.515625 34.695312 75.210938 34.988281 C 78.421875 36.351562 82.101562 35.664062 83.988281 35.140625 C 82.019531 28.929688 83.015625 22.925781 83.8125 19.835938 Z M 83.8125 19.835938 " fill-opacity="1" fill-rule="evenodd"/><path fill="#000000" d="M 62.136719 27.898438 C 60.636719 28.253906 58.066406 29.289062 56.277344 32.289062 C 55.949219 32.835938 55.292969 33.085938 54.6875 32.894531 C 54.082031 32.703125 53.6875 32.117188 53.730469 31.484375 C 53.730469 31.484375 53.898438 29.136719 55.039062 26.570312 C 56.222656 23.914062 58.4375 21.050781 62.457031 20.125 C 70.414062 18.289062 73.898438 22.136719 73.898438 22.136719 C 74.402344 22.667969 74.40625 23.5 73.902344 24.035156 C 73.902344 24.035156 72.683594 25.152344 71.589844 26.476562 C 71.171875 26.984375 70.757812 27.515625 70.480469 28.015625 C 71.828125 29.417969 74.820312 32.75 75.960938 35.769531 C 76.167969 36.324219 76 36.953125 75.539062 37.324219 C 75.074219 37.699219 74.425781 37.730469 73.929688 37.40625 C 72.878906 36.722656 71.929688 36.253906 71.105469 36.132812 C 69.71875 35.929688 68.808594 35.945312 68.210938 36.125 C 67.941406 36.210938 67.882812 36.300781 67.886719 36.308594 L 67.886719 36.3125 C 68.117188 36.972656 67.820312 37.695312 67.199219 38.003906 C 66.574219 38.308594 65.820312 38.101562 65.445312 37.515625 C 65.445312 37.515625 62.980469 33.738281 62.136719 27.898438 Z M 70.757812 23.289062 C 69.425781 22.632812 66.921875 21.917969 63.070312 22.804688 C 60.589844 23.375 59.054688 24.960938 58.09375 26.617188 C 60.808594 24.96875 63.3125 24.960938 63.3125 24.960938 C 64.03125 24.953125 64.632812 25.496094 64.695312 26.210938 C 64.992188 29.464844 65.890625 32.113281 66.636719 33.835938 C 67.515625 33.359375 68.996094 33.046875 71.492188 33.410156 C 69.84375 31.148438 67.914062 29.324219 67.914062 29.324219 C 67.546875 28.972656 67.402344 28.449219 67.539062 27.957031 C 67.75 27.210938 68.253906 26.328125 68.886719 25.472656 C 69.476562 24.679688 70.175781 23.902344 70.757812 23.289062 Z M 70.757812 23.289062 " fill-opacity="1" fill-rule="evenodd"/><path fill="#000000" d="M 94.960938 81.175781 C 92.136719 80.539062 89.328125 82.324219 88.691406 85.160156 C 88.058594 87.992188 89.835938 90.8125 92.664062 91.445312 C 95.488281 92.082031 98.300781 90.300781 98.933594 87.464844 C 99.566406 84.632812 97.789062 81.8125 94.960938 81.175781 Z M 94.34375 83.949219 C 95.640625 84.242188 96.460938 85.539062 96.167969 86.84375 C 95.875 88.148438 94.582031 88.96875 93.285156 88.675781 C 91.984375 88.382812 91.164062 87.085938 91.457031 85.78125 C 91.75 84.476562 93.039062 83.65625 94.34375 83.949219 Z M 94.34375 83.949219 " fill-opacity="1" fill-rule="evenodd"/><path fill="#000000" d="M 91.085938 73.65625 C 90.65625 73.75 90.296875 74.035156 90.109375 74.433594 C 89.917969 74.832031 89.925781 75.292969 90.121094 75.683594 L 94.015625 83.402344 C 94.167969 83.707031 94.425781 83.945312 94.738281 84.074219 C 95.804688 84.515625 96.429688 85.675781 96.167969 86.84375 C 95.875 88.148438 94.582031 88.96875 93.285156 88.675781 C 91.996094 88.382812 91.179688 87.109375 91.449219 85.820312 C 91.515625 85.503906 91.472656 85.175781 91.324219 84.886719 L 87.394531 77.097656 C 87.195312 76.703125 86.828125 76.425781 86.394531 76.34375 C 85.960938 76.261719 85.515625 76.386719 85.1875 76.679688 C 83.257812 78.414062 81.824219 80.746094 81.214844 83.476562 C 79.652344 90.449219 84.03125 97.378906 90.984375 98.945312 C 97.9375 100.511719 104.847656 96.121094 106.410156 89.148438 C 107.972656 82.175781 103.59375 75.246094 96.640625 73.679688 C 94.75 73.253906 92.863281 73.269531 91.085938 73.65625 Z M 93.5625 76.207031 L 96.328125 81.691406 C 98.332031 82.789062 99.457031 85.121094 98.933594 87.464844 C 98.300781 90.300781 95.488281 92.082031 92.664062 91.445312 C 90.039062 90.855469 88.316406 88.382812 88.59375 85.765625 L 85.785156 80.199219 C 84.9375 81.320312 84.308594 82.636719 83.980469 84.097656 C 82.761719 89.539062 86.179688 94.949219 91.605469 96.171875 C 97.03125 97.394531 102.425781 93.96875 103.644531 88.527344 C 104.863281 83.085938 101.445312 77.671875 96.019531 76.453125 C 95.195312 76.265625 94.371094 76.1875 93.5625 76.207031 Z M 93.5625 76.207031 " fill-opacity="1" fill-rule="evenodd"/><path fill="#000000" d="M 88.640625 85.757812 L 81.597656 71.796875 C 81.292969 71.195312 81.46875 70.460938 82.011719 70.0625 C 83.429688 69.027344 85.210938 68.003906 87.449219 67.042969 C 88.113281 66.757812 88.882812 67.039062 89.210938 67.6875 L 96.292969 81.726562 C 98.289062 82.8125 99.410156 85.125 98.886719 87.457031 C 98.261719 90.265625 95.472656 92.035156 92.671875 91.402344 C 90.066406 90.816406 88.359375 88.359375 88.640625 85.757812 Z M 87.355469 70.101562 C 86.3125 70.597656 85.394531 71.109375 84.585938 71.628906 L 91.285156 84.90625 C 91.425781 85.1875 91.46875 85.503906 91.402344 85.808594 C 91.128906 87.125 91.960938 88.421875 93.273438 88.71875 C 94.597656 89.019531 95.914062 88.179688 96.214844 86.851562 C 96.480469 85.664062 95.839844 84.484375 94.757812 84.035156 C 94.453125 83.90625 94.203125 83.675781 94.058594 83.382812 Z M 87.355469 70.101562 " fill-opacity="1" fill-rule="evenodd"/></svg>