<svg xmlns="http://www.w3.org/2000/svg" xmlns:xlink="http://www.w3.org/1999/xlink" width="144" zoomAndPan="magnify" viewBox="0 0 108 107.999999" height="144" preserveAspectRatio="xMidYMid meet" version="1.0"><defs><clipPath id="7f8ee64c26"><path d="M 0 22 L 108 22 L 108 106.351562 L 0 106.351562 Z M 0 22 " clip-rule="nonzero"/></clipPath><clipPath id="a885fbe65f"><path d="M 38 1.351562 L 61 1.351562 L 61 21 L 38 21 Z M 38 1.351562 " clip-rule="nonzero"/></clipPath></defs><g clip-path="url(#7f8ee64c26)"><path fill="#000000" d="M 24.71875 92.246094 L 38.992188 92.246094 C 38.992188 96.179688 35.800781 99.371094 31.855469 99.371094 C 27.910156 99.371094 24.71875 96.179688 24.71875 92.246094 Z M 92.378906 85.128906 C 96.320312 85.128906 99.519531 88.3125 99.519531 92.246094 C 99.519531 96.179688 96.320312 99.371094 92.378906 99.371094 C 88.441406 99.371094 85.242188 96.175781 85.242188 92.246094 C 85.242188 90.800781 85.683594 89.386719 86.503906 88.199219 L 90.242188 92.933594 C 90.9375 93.878906 92.128906 94.289062 93.152344 93.703125 C 94.171875 93.113281 94.363281 91.898438 93.929688 90.808594 L 91.078125 85.25 C 91.511719 85.171875 91.945312 85.128906 92.378906 85.128906 Z M 18.816406 37.53125 C 19.125 37.558594 19.5 37.757812 19.925781 38.054688 C 23.761719 40.675781 24.953125 48.097656 21.578125 51.464844 C 21.089844 51.953125 20.875 52.25 20.875 53.09375 L 20.875 61.027344 C 20.875 62.523438 18.007812 62.523438 18.007812 61.023438 L 18 50.992188 L 18 39.148438 C 18 37.90625 18.3125 37.488281 18.816406 37.53125 Z M 10.695312 37.53125 C 11.050781 37.523438 11.410156 37.835938 11.441406 38.441406 L 11.695312 44.445312 C 11.667969 45.324219 12.984375 45.324219 12.957031 44.445312 L 12.957031 38.632812 C 12.957031 37.882812 13.371094 37.671875 13.949219 38.378906 C 14.894531 39.519531 15.410156 42.085938 15.410156 43.921875 C 15.410156 46.371094 14.425781 48.597656 12.84375 49.648438 C 12.261719 50.027344 12.140625 50.15625 12.140625 51 L 12.140625 61.023438 C 12.140625 62.523438 9.253906 62.523438 9.253906 61.023438 L 9.253906 51 C 9.226562 50.199219 9.230469 50.0625 8.542969 49.640625 C 6.933594 48.644531 5.976562 46.371094 5.976562 43.921875 C 5.976562 42.09375 6.5 39.519531 7.4375 38.378906 C 8.027344 37.671875 8.4375 37.882812 8.4375 38.632812 L 8.4375 44.445312 C 8.402344 45.324219 9.726562 45.324219 9.699219 44.445312 L 9.957031 38.484375 C 9.984375 37.847656 10.339844 37.53125 10.695312 37.53125 Z M 44.785156 22.171875 C 42.367188 22.230469 40.039062 23.472656 39.414062 25.648438 L 32.585938 49.265625 C 31.527344 52.9375 32.726562 57.851562 38.308594 57.851562 L 55.773438 57.851562 L 59.605469 78.085938 C 60.277344 81.648438 67.085938 81.707031 66.8125 78.078125 L 65.085938 55.199219 C 64.808594 51.53125 63.320312 50.15625 60.652344 49.804688 L 47.289062 47.78125 L 48.640625 36.441406 L 54.914062 41.171875 C 56.226562 42.164062 56.835938 42.320312 58.332031 42.578125 L 65.980469 43.929688 C 66.789062 44.078125 67.148438 44.414062 67.6875 45.734375 L 79.074219 73.527344 C 81.65625 79.832031 79.640625 84.109375 71.40625 84.109375 L 56.71875 84.109375 C 50.363281 84.109375 46.972656 78.734375 49.042969 74.078125 L 52.0625 67.304688 C 53.433594 64.230469 51.800781 61.003906 48.511719 61.003906 L 29.195312 61.003906 L 29.195312 31.433594 C 29.195312 27.132812 26.910156 25.867188 23.085938 25.867188 L 14.894531 25.867188 C 6.960938 25.867188 0.585938 32.222656 0.585938 40.132812 L 0.585938 63.503906 C 0.585938 66.035156 2.480469 68.082031 4.828125 68.082031 L 20.253906 68.082031 C 13.261719 72.460938 8.820312 81.042969 9.574219 88.582031 C 9.898438 91.855469 11.796875 92.246094 13.207031 92.246094 L 17.738281 92.246094 C 17.738281 100.019531 24.058594 106.328125 31.851562 106.328125 C 39.644531 106.328125 45.976562 100.019531 45.976562 92.246094 L 78.257812 92.246094 C 78.257812 100.019531 84.578125 106.328125 92.375 106.328125 C 100.179688 106.328125 106.496094 100.019531 106.496094 92.246094 C 106.492188 89.777344 105.835938 87.351562 104.597656 85.214844 L 105.460938 85.347656 C 107.050781 85.589844 107.460938 83.652344 106.675781 81.945312 C 104.070312 76.289062 98.539062 72.574219 92.402344 72.269531 C 91.804688 72.242188 91.261719 71.894531 91.261719 71.164062 L 91.261719 70.042969 C 91.261719 68.667969 91.269531 67.558594 90.183594 66.082031 L 74.890625 44.835938 C 74.117188 43.507812 74.316406 42.765625 75.65625 42.765625 L 78.242188 42.765625 C 79.976562 42.765625 81.238281 42.40625 80.992188 40.390625 L 80.226562 35.332031 C 80.027344 33.753906 79.359375 32.675781 77.074219 32.675781 L 73.03125 32.675781 C 68.726562 32.675781 66.980469 35.65625 65.832031 37.210938 C 65.609375 37.503906 65.441406 37.75 65.285156 37.976562 L 59.121094 36.023438 L 49.839844 24.316406 C 48.601562 22.800781 46.667969 22.128906 44.785156 22.171875 Z M 44.785156 22.171875 " fill-opacity="1" fill-rule="evenodd"/></g><g clip-path="url(#a885fbe65f)"><path fill="#000000" d="M 48.9375 1.652344 C 44.851562 1.390625 41.054688 3.800781 39.570312 7.609375 C 38.089844 11.421875 39.226562 15.785156 42.449219 18.304688 C 44.265625 19.71875 46.441406 20.714844 48.34375 20.730469 C 52.96875 20.746094 56.730469 16.980469 56.769531 12.375 L 54.367188 12.515625 C 54.261719 15.773438 51.628906 18.355469 48.34375 18.355469 C 47.960938 18.355469 47.59375 18.320312 47.234375 18.246094 C 47.617188 17.714844 47.890625 17.023438 48.085938 16.222656 C 49.234375 11.414062 52.679688 11.34375 55.886719 11.109375 C 56.816406 11.039062 58.066406 11.039062 59.171875 11.039062 C 61.070312 11.039062 61.136719 8.648438 59.503906 8.328125 L 57.320312 7.949219 C 56.71875 6.304688 55.683594 4.890625 54.277344 3.730469 C 52.867188 2.570312 50.988281 1.785156 48.9375 1.652344 Z M 48.9375 1.652344 " fill-opacity="1" fill-rule="evenodd"/></g></svg>