<svg xmlns="http://www.w3.org/2000/svg" xmlns:xlink="http://www.w3.org/1999/xlink" width="60" zoomAndPan="magnify" viewBox="0 0 45 44.999999" height="60" preserveAspectRatio="xMidYMid meet" version="1.0"><defs><clipPath id="3011ecdc5d"><path d="M 14 14 L 32.074219 14 L 32.074219 21 L 14 21 Z M 14 14 " clip-rule="nonzero"/></clipPath><clipPath id="fecc35c7b0"><path d="M 13.179688 21.378906 L 31.269531 21.378906 L 31.269531 44.988281 L 13.179688 44.988281 Z M 13.179688 21.378906 " clip-rule="nonzero"/></clipPath><clipPath id="4af832a525"><path d="M 13.179688 22.777344 L 25.890625 22.777344 L 25.890625 36.054688 L 13.179688 36.054688 Z M 13.179688 22.777344 " clip-rule="nonzero"/></clipPath></defs><g clip-path="url(#3011ecdc5d)"><path fill="#e74e53" d="M 29.695312 20.535156 L 14.105469 20.527344 C 16.539062 12.253906 28.316406 17.476562 30.734375 14.621094 C 31.503906 15.070312 32.015625 15.699219 32.140625 16.535156 C 32.414062 18.351562 31.386719 19.648438 29.695312 20.535156 " fill-opacity="1" fill-rule="nonzero"/></g><path fill="#e1c561" d="M 14.527344 17.921875 C 12.917969 7.882812 27.507812 12.359375 28.941406 8.023438 C 30.050781 8.519531 30.996094 9.796875 31.34375 10.957031 C 31.703125 12.179688 30.972656 13.410156 30.457031 13.953125 C 27.871094 16.691406 20.457031 11.929688 14.527344 17.921875 " fill-opacity="1" fill-rule="nonzero"/><path fill="#e74e53" d="M 27.035156 8.414062 C 24.9375 10.421875 17.945312 9.265625 15.75 12.066406 C 13.8125 3.921875 26.496094 7.546875 23.808594 0.0078125 C 27.261719 1.390625 30.015625 5.5625 27.035156 8.414062 " fill-opacity="1" fill-rule="nonzero"/><g clip-path="url(#fecc35c7b0)"><path fill="#c22826" d="M 14.027344 21.527344 C 14.160156 21.464844 14.304688 21.429688 14.457031 21.429688 L 29.984375 21.429688 C 30.691406 21.429688 31.261719 22.152344 31.261719 23.042969 C 31.261719 23.929688 30.691406 24.652344 29.984375 24.652344 L 29.863281 24.652344 C 29.855469 24.6875 29.84375 24.722656 29.832031 24.761719 L 22.726562 44.410156 C 22.449219 45.183594 21.992188 45.183594 21.714844 44.410156 L 14.609375 24.761719 C 14.597656 24.722656 14.589844 24.6875 14.578125 24.652344 L 14.457031 24.652344 C 13.75 24.652344 13.179688 23.929688 13.179688 23.042969 C 13.179688 22.34375 13.53125 21.75 14.027344 21.527344 " fill-opacity="1" fill-rule="nonzero"/></g><path fill="#ffffff" d="M 14.628906 24.683594 L 14.597656 24.714844 C 14.589844 24.695312 14.582031 24.671875 14.578125 24.652344 L 14.457031 24.652344 C 14.390625 24.652344 14.324219 24.644531 14.257812 24.632812 L 14.417969 24.46875 L 14.628906 24.683594 " fill-opacity="1" fill-rule="nonzero"/><path fill="#ffffff" d="M 17.136719 22.132812 L 14.839844 24.46875 L 14.628906 24.253906 L 16.925781 21.917969 L 17.136719 22.132812 " fill-opacity="1" fill-rule="nonzero"/><path fill="#ffffff" d="M 17.136719 21.703125 L 17.40625 21.429688 L 17.824219 21.429688 L 17.347656 21.917969 L 17.136719 21.703125 " fill-opacity="1" fill-rule="nonzero"/><path fill="#ffffff" d="M 22.152344 21.703125 L 22.421875 21.429688 L 22.839844 21.429688 L 22.363281 21.917969 L 22.152344 21.703125 " fill-opacity="1" fill-rule="nonzero"/><path fill="#ffffff" d="M 22.152344 22.132812 L 19.855469 24.46875 L 19.644531 24.253906 L 21.941406 21.917969 L 22.152344 22.132812 " fill-opacity="1" fill-rule="nonzero"/><path fill="#ffffff" d="M 19.644531 24.683594 L 17.347656 27.019531 L 17.136719 26.804688 L 19.433594 24.46875 L 19.644531 24.683594 " fill-opacity="1" fill-rule="nonzero"/><path fill="#ffffff" d="M 17.136719 27.234375 L 15.945312 28.449219 L 15.832031 28.132812 L 16.925781 27.019531 L 17.136719 27.234375 " fill-opacity="1" fill-rule="nonzero"/><path fill="#ffffff" d="M 27.167969 21.703125 L 27.433594 21.429688 L 27.855469 21.429688 L 27.375 21.917969 L 27.167969 21.703125 " fill-opacity="1" fill-rule="nonzero"/><path fill="#ffffff" d="M 24.660156 24.683594 L 22.363281 27.019531 L 22.152344 26.804688 L 24.449219 24.46875 L 24.660156 24.683594 " fill-opacity="1" fill-rule="nonzero"/><path fill="#ffffff" d="M 22.152344 27.234375 L 19.855469 29.570312 L 19.644531 29.355469 L 21.941406 27.019531 L 22.152344 27.234375 " fill-opacity="1" fill-rule="nonzero"/><path fill="#ffffff" d="M 27.167969 22.132812 L 24.871094 24.46875 L 24.660156 24.253906 L 26.957031 21.917969 L 27.167969 22.132812 " fill-opacity="1" fill-rule="nonzero"/><path fill="#ffffff" d="M 19.644531 29.785156 L 17.347656 32.121094 L 17.230469 32.003906 L 17.179688 31.863281 L 19.433594 29.570312 L 19.644531 29.785156 " fill-opacity="1" fill-rule="nonzero"/><path fill="#ffffff" d="M 24.660156 29.785156 L 22.363281 32.121094 L 22.152344 31.910156 L 24.449219 29.570312 L 24.660156 29.785156 " fill-opacity="1" fill-rule="nonzero"/><path fill="#ffffff" d="M 29.675781 24.253906 L 31.230469 22.671875 C 31.25 22.792969 31.261719 22.914062 31.261719 23.042969 C 31.261719 23.050781 31.261719 23.058594 31.261719 23.066406 L 29.882812 24.46875 L 29.675781 24.253906 " fill-opacity="1" fill-rule="nonzero"/><path fill="#ffffff" d="M 29.675781 24.683594 L 27.375 27.019531 L 27.167969 26.804688 L 29.464844 24.46875 L 29.675781 24.683594 " fill-opacity="1" fill-rule="nonzero"/><path fill="#ffffff" d="M 27.167969 27.234375 L 24.871094 29.570312 L 24.660156 29.355469 L 26.957031 27.019531 L 27.167969 27.234375 " fill-opacity="1" fill-rule="nonzero"/><path fill="#ffffff" d="M 19.644531 34.886719 L 18.640625 35.910156 L 18.527344 35.59375 L 19.433594 34.671875 L 19.644531 34.886719 " fill-opacity="1" fill-rule="nonzero"/><path fill="#ffffff" d="M 22.152344 32.335938 L 19.855469 34.671875 L 19.644531 34.460938 L 21.941406 32.121094 L 22.152344 32.335938 " fill-opacity="1" fill-rule="nonzero"/><path fill="#ffffff" d="M 22.152344 37.4375 L 19.988281 39.636719 L 19.875 39.324219 L 21.941406 37.226562 L 22.152344 37.4375 " fill-opacity="1" fill-rule="nonzero"/><path fill="#ffffff" d="M 24.660156 34.460938 L 26.957031 32.121094 L 27.113281 32.28125 L 27.050781 32.457031 L 24.871094 34.671875 L 24.660156 34.460938 " fill-opacity="1" fill-rule="nonzero"/><path fill="#ffffff" d="M 27.292969 31.777344 L 27.226562 31.96875 L 27.167969 31.910156 Z M 27.292969 31.777344 " fill-opacity="1" fill-rule="nonzero"/><path fill="#ffffff" d="M 24.660156 34.886719 L 22.363281 37.226562 L 22.152344 37.011719 L 24.449219 34.671875 L 24.660156 34.886719 " fill-opacity="1" fill-rule="nonzero"/><path fill="#ffffff" d="M 22.152344 42.542969 L 21.335938 43.367188 L 21.222656 43.054688 L 21.941406 42.328125 L 22.152344 42.542969 " fill-opacity="1" fill-rule="nonzero"/><path fill="#ffffff" d="M 22.152344 42.113281 L 24.375 39.847656 L 24.132812 40.527344 L 22.363281 42.328125 L 22.152344 42.113281 " fill-opacity="1" fill-rule="nonzero"/><path fill="#ffffff" d="M 29.464844 24.46875 L 27.167969 22.132812 L 26.957031 21.917969 L 26.476562 21.429688 L 26.898438 21.429688 L 29.882812 24.46875 L 30.058594 24.648438 C 30.035156 24.648438 30.011719 24.652344 29.984375 24.652344 L 29.863281 24.652344 C 29.855469 24.6875 29.84375 24.722656 29.832031 24.761719 L 29.808594 24.820312 L 29.464844 24.46875 " fill-opacity="1" fill-rule="nonzero"/><path fill="#ffffff" d="M 26.957031 27.019531 L 21.460938 21.429688 L 21.882812 21.429688 L 28.574219 28.238281 L 28.460938 28.550781 L 26.957031 27.019531 " fill-opacity="1" fill-rule="nonzero"/><path fill="#ffffff" d="M 24.660156 29.785156 L 19.644531 24.683594 L 19.433594 24.46875 L 17.136719 22.132812 L 16.925781 21.917969 L 16.449219 21.429688 L 16.867188 21.429688 L 17.136719 21.703125 L 17.347656 21.917969 L 27.226562 31.96875 L 27.113281 32.28125 L 24.660156 29.785156 " fill-opacity="1" fill-rule="nonzero"/><g clip-path="url(#4af832a525)"><path fill="#ffffff" d="M 24.449219 34.671875 L 19.644531 29.785156 L 19.433594 29.570312 L 17.136719 27.234375 L 16.925781 27.019531 L 14.628906 24.683594 L 14.417969 24.46875 L 13.1875 23.214844 C 13.183594 23.15625 13.179688 23.101562 13.179688 23.042969 C 13.179688 22.957031 13.183594 22.875 13.195312 22.796875 L 14.628906 24.253906 L 14.839844 24.46875 L 17.136719 26.804688 L 17.347656 27.019531 L 24.871094 34.671875 L 25.878906 35.699219 L 25.765625 36.011719 L 24.660156 34.886719 L 24.449219 34.671875 " fill-opacity="1" fill-rule="nonzero"/></g><path fill="#ffffff" d="M 21.941406 37.226562 L 17.472656 32.679688 L 17.230469 32.003906 L 17.347656 32.121094 L 22.152344 37.011719 L 22.363281 37.226562 L 24.527344 39.429688 L 24.414062 39.742188 L 22.152344 37.4375 L 21.941406 37.226562 " fill-opacity="1" fill-rule="nonzero"/><path fill="#ffffff" d="M 21.941406 42.328125 L 20.390625 40.75 L 20.144531 40.074219 L 22.152344 42.113281 L 22.363281 42.328125 L 23.179688 43.160156 L 23.066406 43.472656 L 22.152344 42.542969 L 21.941406 42.328125 " fill-opacity="1" fill-rule="nonzero"/><path fill="#ffffff" d="M 19.171875 6.757812 C 18.273438 6.660156 16.734375 7.917969 16.898438 8.589844 C 17.285156 7.9375 18.425781 7.183594 19.171875 6.757812 " fill-opacity="1" fill-rule="nonzero"/><path fill="#ffffff" d="M 18.621094 16.664062 C 17.722656 16.566406 16.183594 17.824219 16.351562 18.496094 C 16.738281 17.84375 17.878906 17.089844 18.621094 16.664062 " fill-opacity="1" fill-rule="nonzero"/><path fill="#ffffff" d="M 18.4375 11.933594 C 17.414062 11.824219 15.660156 13.253906 15.851562 14.019531 C 16.292969 13.277344 17.589844 12.417969 18.4375 11.933594 " fill-opacity="1" fill-rule="nonzero"/></svg>